<?xml version="1.0" encoding="utf-8"?>
<!-- Generator: Adobe Illustrator 24.0.1, SVG Export Plug-In . SVG Version: 6.00 Build 0)  -->
<svg version="1.1" id="Layer_1" xmlns="http://www.w3.org/2000/svg" xmlns:xlink="http://www.w3.org/1999/xlink" x="0px" y="0px"
	 viewBox="0 0 592.72 333.41" style="enable-background:new 0 0 592.72 333.41;" xml:space="preserve">
<style type="text/css">
	.st0{opacity:0.4;}
</style>
<g>
	<g>
		<g class="st0">
			<rect x="181.91" y="53.01" width="3.46" height="231.02"/>
		</g>
		<g class="st0">
			<rect x="80.82" y="110.58" width="3.46" height="117.68"/>
		</g>
		<g class="st0">
			<rect x="282.68" y="110.58" width="3.46" height="117.68"/>
		</g>
		<g>
			<g class="st0">
				<rect x="175.67" y="253.1" transform="matrix(0.8644 -0.5027 0.5027 0.8644 -96.3236 152.4381)" width="117.68" height="3.46"/>
			</g>
			<g class="st0">
				
					<rect x="131.68" y="195.99" transform="matrix(0.5028 -0.8644 0.8644 0.5028 -153.9471 242.0112)" width="3.46" height="117.68"/>
			</g>
			<g class="st0">
				<rect x="74.57" y="194.2" transform="matrix(0.8644 -0.5027 0.5027 0.8644 -80.4163 93.629)" width="117.68" height="3.46"/>
			</g>
			<g class="st0">
				
					<rect x="232.78" y="137.09" transform="matrix(0.5028 -0.8644 0.8644 0.5028 -52.7722 300.1128)" width="3.46" height="117.68"/>
			</g>
		</g>
		<g>
			<g class="st0">
				
					<rect x="175.67" y="136.54" transform="matrix(0.8644 -0.5027 0.5027 0.8644 -37.7236 136.6372)" width="117.68" height="3.46"/>
			</g>
			<g class="st0">
				<rect x="131.68" y="79.43" transform="matrix(0.5028 -0.8644 0.8644 0.5028 -53.1918 184.0597)" width="3.46" height="117.68"/>
			</g>
			<g class="st0">
				<rect x="74.57" y="78.33" transform="matrix(0.8644 -0.5027 0.5027 0.8644 -22.1645 77.9219)" width="117.68" height="3.46"/>
			</g>
			<g class="st0">
				<rect x="232.78" y="21.22" transform="matrix(0.5028 -0.8644 0.8644 0.5028 47.3843 242.5065)" width="3.46" height="117.68"/>
			</g>
		</g>
		<g>
			<path d="M189.27,60.43c0,0.95,0,1.57,0,2.19c0,8.11,0.02,16.23-0.01,24.34c-0.01,2.82-2.12,5.18-4.82,5.55
				c-2.81,0.39-5.46-1.34-6.22-4.13c-0.19-0.69-0.2-1.45-0.2-2.17C178,78.3,178,70.4,178,62.49c0-0.57,0-1.14,0-2.02
				c-0.69,0.35-1.18,0.58-1.64,0.84c-6.12,3.52-12.21,7.1-18.38,10.54c-1.13,0.63-2.57,1.02-3.85,0.98c-2.56-0.08-4.52-1.93-5-4.25
				c-0.52-2.51,0.57-4.96,2.85-6.27c8.42-4.88,16.84-9.74,25.27-14.61c1.18-0.68,2.35-1.37,3.54-2.03c1.89-1.04,3.82-1.08,5.69,0
				c9.66,5.55,19.32,11.11,28.94,16.72c2.79,1.63,3.66,5.12,2.11,7.78c-1.54,2.65-4.98,3.57-7.82,1.96
				c-6.28-3.56-12.51-7.2-18.77-10.8C190.49,61.07,190.04,60.84,189.27,60.43z"/>
			<path d="M178,273.66c0-2.84,0-5.35,0-7.86c0-6.12-0.02-12.25,0.01-18.37c0.01-2.71,1.59-4.89,3.96-5.63
				c3.71-1.15,7.28,1.59,7.29,5.69c0.03,8.01,0.01,16.02,0.01,24.03c0,0.62,0,1.23,0,2.14c0.72-0.38,1.22-0.61,1.69-0.89
				c6.07-3.5,12.12-7.05,18.24-10.47c1.13-0.63,2.56-1.06,3.84-1.04c2.57,0.05,4.54,1.84,5.1,4.15c0.57,2.35-0.43,4.96-2.62,6.24
				c-9.67,5.64-19.37,11.23-29.07,16.81c-1.87,1.07-3.82,1.05-5.69-0.03c-9.66-5.56-19.32-11.11-28.94-16.72
				c-2.77-1.62-3.62-5.15-2.05-7.8c1.57-2.65,4.98-3.54,7.83-1.92c6.28,3.57,12.51,7.2,18.77,10.8
				C176.8,273.05,177.26,273.27,178,273.66z"/>
			<path d="M94.15,108.81c2.78,1.62,5.34,3.12,7.91,4.6c4.85,2.8,9.69,5.6,14.55,8.39c1.68,0.96,2.83,2.31,3.15,4.26
				c0.37,2.28-0.32,4.21-2.23,5.49c-2.03,1.36-4.25,1.42-6.39,0.19c-5.4-3.09-10.78-6.23-16.17-9.34c-2.07-1.2-4.16-2.39-6.5-3.73
				c-0.04,0.78-0.09,1.31-0.09,1.85c-0.01,7.28,0.02,14.55-0.02,21.83c-0.01,2.78-2.07,5.14-4.66,5.52
				c-2.88,0.42-5.5-1.19-6.33-3.95c-0.18-0.59-0.23-1.23-0.23-1.85c-0.02-10.99-0.01-21.99-0.03-32.98
				c-0.01-2.44,1.05-4.19,3.14-5.39c9.43-5.43,18.84-10.89,28.28-16.31c3.02-1.74,6.51-0.94,8.11,1.8c1.65,2.82,0.61,6.26-2.48,8.05
				c-6.07,3.51-12.14,7.01-18.21,10.51C95.4,108.04,94.89,108.36,94.15,108.81z"/>
			<path d="M273.11,225.3c-2.5-1.46-4.79-2.81-7.08-4.14c-5.07-2.93-10.14-5.87-15.23-8.77c-1.73-0.99-2.95-2.33-3.28-4.34
				c-0.37-2.28,0.32-4.21,2.23-5.49c2.09-1.4,4.34-1.37,6.53-0.1c6.44,3.71,12.87,7.43,19.3,11.14c0.99,0.57,1.98,1.13,3.23,1.85
				c0.04-0.79,0.08-1.32,0.08-1.86c0.01-7.22-0.02-14.45,0.02-21.67c0.02-3.48,2.67-5.91,6.09-5.7c2.95,0.18,5.15,2.65,5.16,5.85
				c0.02,8.59,0.01,17.17,0.01,25.76c0,2.46-0.01,4.92,0,7.38c0.01,2.24-0.96,3.94-2.88,5.05c-9.6,5.56-19.19,11.12-28.81,16.63
				c-2.84,1.63-6.26,0.71-7.82-1.95c-1.59-2.71-0.65-6.2,2.22-7.87c6.14-3.59,12.32-7.12,18.48-10.68
				C271.86,226.07,272.38,225.74,273.11,225.3z"/>
			<path d="M278.9,118.65c-0.83,0.46-1.37,0.74-1.89,1.04c-6.89,3.98-13.77,7.98-20.67,11.92c-3.67,2.1-7.73,0.59-8.73-3.16
				c-0.68-2.58,0.48-5.15,3.02-6.62c6.98-4.04,13.95-8.07,20.93-12.1c0.44-0.26,0.87-0.54,1.51-0.95c-0.71-0.44-1.26-0.8-1.82-1.13
				c-6.03-3.48-12.06-6.96-18.1-10.42c-1.64-0.94-2.77-2.22-3.12-4.1c-0.41-2.26,0.19-4.23,2.07-5.56c2.11-1.5,4.38-1.54,6.65-0.22
				c7.25,4.19,14.5,8.38,21.75,12.56c2.22,1.28,4.44,2.57,6.66,3.85c2,1.15,2.99,2.88,2.99,5.16c0.01,11.1,0.03,22.21,0,33.31
				c-0.01,3.25-2.47,5.63-5.69,5.64c-3.09,0.01-5.53-2.39-5.55-5.6c-0.04-7.23-0.01-14.45-0.01-21.68
				C278.9,120.06,278.9,119.51,278.9,118.65z"/>
			<path d="M94.21,225.35c1.45,0.85,2.74,1.62,4.05,2.37c5.3,3.06,10.6,6.13,15.91,9.17c1.64,0.94,2.75,2.24,3.08,4.12
				c0.4,2.26-0.22,4.22-2.11,5.54c-2.05,1.44-4.29,1.54-6.51,0.25c-6.3-3.64-12.59-7.28-18.89-10.91c-3.13-1.81-6.24-3.63-9.38-5.41
				c-2.22-1.25-3.27-3.06-3.27-5.63c0.04-10.84,0.01-21.67,0.02-32.51c0-3.7,2.28-6.16,5.67-6.15c3.34,0.01,5.59,2.5,5.6,6.22
				c0.01,7.02,0,14.03,0,21.05c0,0.56,0,1.12,0,1.98c0.79-0.43,1.33-0.7,1.85-1c6.84-3.95,13.69-7.89,20.52-11.86
				c1.68-0.97,3.41-1.33,5.27-0.76c2.15,0.66,3.49,2.17,3.78,4.38c0.33,2.5-0.61,4.55-2.81,5.87c-2.96,1.77-5.97,3.46-8.96,5.19
				c-4.17,2.41-8.33,4.82-12.49,7.23C95.12,224.71,94.75,224.99,94.21,225.35z"/>
			<path d="M177.94,184.68c0-4.24-0.06-8.48,0.03-12.72c0.03-1.25-0.47-1.85-1.48-2.43c-7.26-4.17-14.48-8.4-21.73-12.58
				c-1.63-0.94-2.78-2.21-3.12-4.09c-0.41-2.25,0.18-4.22,2.06-5.57c2.04-1.46,4.27-1.59,6.5-0.3c6.34,3.66,12.69,7.31,19.03,10.98
				c4.41,2.55,4.4,2.56,8.85-0.02c6.16-3.57,12.3-7.17,18.51-10.63c1.22-0.68,2.76-1.13,4.13-1.08c2.56,0.09,4.5,2.01,4.94,4.32
				c0.48,2.52-0.59,4.88-2.94,6.24c-6.06,3.52-12.15,7-18.21,10.53c-1.71,1-4,1.72-4.88,3.24c-0.87,1.51-0.36,3.86-0.37,5.84
				c-0.02,6.91,0,13.82-0.01,20.74c0,3.67-2.32,6.19-5.66,6.17c-3.33-0.01-5.6-2.53-5.61-6.22c-0.01-4.14,0-8.27,0-12.41
				C177.98,184.68,177.96,184.68,177.94,184.68z"/>
		</g>
	</g>
	<g>
		<path d="M371.99,121.36l-41.39,91.4h13.45l10.04-22.85h48.6l10.04,22.85h13.71l-41.52-91.4H371.99z M358.68,179.47l19.71-44.85
			l19.71,44.85H358.68z"/>
		<path d="M515.36,212.76l-21.69-30.6c0.85-0.31,1.69-0.64,2.49-1c5.66-2.52,10.01-6.16,13.06-10.9c3.05-4.74,4.57-10.42,4.57-17.04
			c0-6.61-1.52-12.32-4.57-17.11c-3.05-4.79-7.4-8.44-13.06-10.97c-5.66-2.52-12.49-3.79-20.5-3.79h-35.65v91.4h13.06v-27.81h22.59
			c2.01,0,3.94-0.08,5.8-0.24l19.66,28.05H515.36z M475.27,173.85h-22.2v-41.13h22.2c8.36,0,14.69,1.79,19,5.35
			c4.31,3.57,6.46,8.62,6.46,15.15c0,6.53-2.15,11.6-6.46,15.21C489.96,172.05,483.63,173.85,475.27,173.85z"/>
	</g>
</g>
</svg>
