<?xml version="1.0" standalone="no"?>
<!DOCTYPE svg PUBLIC "-//W3C//DTD SVG 20010904//EN"
 "http://www.w3.org/TR/2001/REC-SVG-20010904/DTD/svg10.dtd">
<svg version="1.0" xmlns="http://www.w3.org/2000/svg"
 width="1080.000000pt" height="1080.000000pt" viewBox="0 0 1080.000000 1080.000000"
 preserveAspectRatio="xMidYMid meet">
<metadata>
Created by potrace 1.14, written by Peter Selinger 2001-2017
</metadata>
<g transform="translate(0.000000,1080.000000) scale(0.100000,-0.100000)"
fill="#000000" stroke="none">
<path d="M5189 10345 c-2 -2 -38 -6 -80 -9 -42 -4 -85 -8 -95 -10 -11 -2 -41
-7 -69 -10 -98 -13 -121 -17 -200 -36 -27 -6 -61 -14 -75 -16 -26 -5 -59 -14
-190 -55 -41 -13 -77 -24 -80 -25 -3 0 -16 -5 -30 -11 -14 -6 -45 -17 -70 -26
-25 -8 -74 -29 -110 -45 -36 -16 -68 -30 -73 -30 -4 -1 -40 -19 -80 -41 -39
-21 -92 -49 -117 -62 -25 -13 -75 -42 -113 -66 -37 -24 -70 -43 -73 -43 -2 0
-10 -5 -17 -10 -7 -6 -63 -48 -125 -94 -144 -107 -211 -164 -342 -296 -165
-165 -329 -374 -442 -565 -42 -69 -168 -315 -163 -315 2 0 -7 -26 -21 -57 -14
-32 -30 -67 -34 -78 -11 -24 -70 -204 -75 -225 -2 -8 -12 -51 -24 -95 -11 -44
-22 -91 -25 -105 -3 -14 -7 -36 -10 -50 -5 -23 -15 -82 -21 -125 -1 -11 -6
-49 -11 -85 -18 -128 -8 -709 12 -741 2 -4 6 -24 9 -45 11 -73 27 -149 50
-239 13 -49 27 -101 30 -115 4 -14 9 -32 12 -40 3 -8 7 -19 8 -25 3 -12 43
-122 55 -150 207 -506 514 -919 916 -1229 54 -43 106 -83 114 -89 12 -10 153
-100 255 -164 19 -12 289 -146 330 -163 45 -20 185 -70 250 -91 39 -11 77 -24
85 -27 8 -3 22 -6 31 -8 8 -2 42 -10 75 -19 58 -15 158 -36 239 -50 22 -4 49
-9 60 -11 18 -3 58 -7 185 -20 25 -2 108 -6 185 -9 189 -6 237 -10 325 -29
107 -22 137 -32 250 -84 36 -16 70 -30 75 -32 6 -1 50 -30 100 -64 216 -148
375 -355 454 -592 47 -139 56 -205 55 -379 0 -71 -4 -146 -8 -165 -45 -218
-98 -344 -214 -499 -52 -70 -208 -231 -223 -231 -4 0 -14 -6 -22 -14 -70 -71
-321 -184 -467 -211 -26 -5 -99 -17 -128 -21 -62 -9 -262 -2 -322 11 -14 3
-41 8 -60 11 -54 9 -208 62 -280 97 -153 73 -320 212 -429 357 -49 65 -127
207 -152 275 -4 11 -12 34 -18 50 -6 17 -13 39 -15 50 -2 11 -9 38 -14 60 -25
93 -33 282 -18 395 10 75 44 207 62 242 8 15 12 28 9 28 -12 0 99 197 149 263
60 79 156 176 227 229 l47 35 -87 22 c-47 13 -97 25 -110 27 -13 3 -32 9 -43
15 -10 5 -18 7 -18 5 0 -10 -238 77 -388 141 -152 65 -153 65 -168 45 -8 -12
-21 -27 -28 -35 -29 -28 -146 -207 -190 -290 -25 -47 -60 -120 -76 -164 -17
-43 -35 -87 -40 -98 -24 -52 -72 -253 -85 -354 -22 -173 -22 -407 0 -521 3
-13 7 -42 10 -65 18 -122 81 -323 146 -461 18 -38 33 -71 33 -74 10 -40 197
-312 260 -376 6 -6 30 -31 53 -56 115 -126 311 -274 484 -367 89 -47 289 -135
289 -126 0 2 16 -3 35 -11 44 -18 224 -62 285 -69 25 -3 59 -9 75 -12 62 -12
382 -19 430 -9 11 2 47 7 80 10 33 4 67 9 75 11 8 2 29 7 45 10 211 36 436
122 640 243 69 41 185 120 200 136 6 6 27 23 47 38 73 55 202 191 312 328 33
42 127 194 163 265 76 149 153 371 169 490 3 17 7 41 10 55 19 86 27 428 12
530 -81 561 -360 1009 -832 1335 -165 113 -402 218 -606 268 -36 9 -78 19 -95
23 -38 10 -47 11 -115 19 -30 4 -68 8 -85 10 -16 3 -105 7 -196 9 -239 8 -404
30 -594 79 -22 6 -43 11 -47 13 -5 1 -9 2 -10 4 -2 1 -10 3 -18 5 -25 5 -174
57 -185 65 -5 3 -41 19 -80 35 -38 16 -95 43 -125 60 -30 16 -72 39 -92 49
-48 26 -253 170 -312 221 -286 243 -501 544 -634 885 -34 87 -66 187 -63 197
0 2 -6 20 -14 42 -12 36 -22 79 -30 138 -2 11 -6 29 -9 40 -11 35 -28 248 -28
349 0 67 12 266 17 274 1 3 6 29 9 59 4 29 8 56 10 60 3 4 7 26 11 50 3 24 11
55 16 70 6 14 10 28 10 31 -1 7 19 83 26 100 4 8 7 17 8 20 5 21 18 58 24 75
132 328 278 554 506 780 175 174 289 261 504 381 202 114 499 218 706 248 23
4 51 8 63 11 131 25 506 26 647 1 17 -3 62 -11 100 -17 39 -6 77 -14 85 -17 8
-3 25 -7 38 -8 71 -9 337 -105 464 -169 127 -64 281 -157 343 -207 6 -4 41
-33 79 -63 253 -204 446 -445 587 -733 35 -70 66 -136 69 -147 4 -11 12 -31
18 -45 25 -62 77 -233 87 -285 2 -16 7 -41 10 -55 3 -14 8 -41 11 -60 3 -19 7
-46 10 -60 23 -128 22 -470 -2 -605 -61 -342 -165 -610 -340 -872 -45 -67 -88
-129 -95 -137 -41 -45 -43 -41 64 -112 91 -61 244 -172 273 -199 6 -5 37 -32
69 -60 32 -27 76 -67 97 -87 21 -20 44 -35 51 -32 20 8 237 312 237 331 0 3 6
14 14 22 20 23 147 272 186 366 41 99 111 305 103 305 -3 0 -1 6 5 13 8 10 30
95 48 182 22 112 23 119 40 240 4 28 9 64 11 80 7 50 13 457 7 467 -4 5 -8 40
-10 76 -2 37 -5 81 -8 97 -3 17 -8 48 -12 70 -3 22 -12 72 -21 110 -8 39 -16
81 -19 95 -12 70 -80 285 -130 412 -103 258 -246 504 -422 727 -47 59 -197
224 -253 278 -105 100 -126 119 -184 166 -33 26 -71 56 -85 68 -40 33 -278
190 -334 221 -47 26 -274 138 -321 159 -38 16 -180 71 -190 73 -5 2 -57 17
-114 35 -57 18 -115 34 -130 36 -14 2 -27 4 -28 6 -2 1 -7 3 -13 4 -5 1 -11 3
-12 5 -4 3 -29 8 -73 15 -22 3 -49 9 -60 12 -11 4 -31 8 -45 9 -14 1 -25 2
-25 4 0 1 -13 3 -30 5 -16 2 -48 6 -70 9 -22 3 -60 9 -85 12 -50 7 -516 15
-521 9z"/>
<path d="M5218 9325 c-1 -2 -32 -6 -68 -10 -57 -6 -85 -11 -190 -31 -120 -24
-307 -92 -454 -165 -84 -42 -289 -168 -306 -189 -3 -3 -18 -16 -35 -29 -108
-82 -335 -319 -335 -348 0 -7 -4 -13 -9 -13 -12 0 -105 -146 -160 -253 -77
-149 -146 -338 -166 -458 -3 -19 -8 -41 -10 -49 -36 -127 -40 -443 -9 -640 53
-332 212 -668 439 -929 75 -86 234 -233 305 -281 19 -13 37 -27 40 -31 15 -19
325 -193 350 -196 3 0 21 -7 40 -15 130 -55 315 -105 450 -123 30 -4 64 -9 75
-11 11 -2 85 -6 165 -9 278 -9 314 -13 530 -51 14 -3 43 -10 65 -16 22 -5 49
-12 61 -14 63 -11 273 -89 380 -140 96 -46 261 -141 290 -166 11 -10 25 -18
31 -18 6 0 13 -3 15 -7 2 -5 39 -35 82 -68 96 -72 261 -231 347 -335 114 -137
240 -341 314 -510 50 -116 119 -325 131 -400 2 -14 7 -36 10 -50 3 -14 7 -37
9 -53 2 -15 9 -64 16 -110 24 -175 13 -473 -26 -657 -2 -14 -7 -35 -9 -47 -42
-209 -149 -469 -280 -680 -106 -172 -298 -393 -443 -509 -26 -21 -57 -47 -67
-56 -106 -96 -514 -319 -626 -343 -8 -2 -42 -13 -75 -25 -61 -21 -160 -49
-205 -56 -14 -3 -32 -7 -40 -9 -8 -2 -37 -7 -65 -11 -27 -3 -59 -8 -70 -10
-118 -26 -503 -25 -645 0 -14 3 -41 7 -60 10 -19 3 -46 8 -60 11 -14 3 -36 7
-50 10 -177 33 -452 139 -639 247 -83 48 -214 135 -260 173 -154 126 -305 279
-394 398 -64 85 -147 210 -167 252 -8 17 -17 32 -20 35 -26 26 -165 364 -176
430 -3 14 -7 32 -10 40 -18 50 -52 239 -61 340 -14 141 -7 421 12 520 2 14 6
41 9 60 7 54 44 201 75 297 68 216 212 485 350 657 17 21 29 42 26 46 -3 5
-26 21 -52 36 -26 15 -52 31 -58 36 -5 5 -48 36 -95 70 -111 80 -219 167 -304
247 l-69 65 -28 -34 c-230 -274 -440 -692 -538 -1070 -71 -273 -86 -403 -86
-730 0 -226 8 -343 29 -447 3 -15 8 -44 11 -63 13 -77 56 -251 88 -350 96
-298 247 -590 435 -842 62 -83 232 -282 253 -298 4 -3 45 -41 91 -85 92 -88
106 -100 199 -173 129 -101 340 -239 422 -277 18 -8 39 -19 47 -25 12 -8 150
-73 235 -110 89 -39 317 -113 425 -138 25 -6 59 -14 75 -18 17 -4 37 -9 45
-10 8 -1 53 -9 100 -17 104 -20 138 -24 232 -34 101 -10 496 -10 593 1 44 5
96 10 115 12 19 1 35 3 35 4 0 1 11 3 25 6 23 4 38 6 110 19 14 2 36 7 50 10
14 3 36 8 50 11 118 24 390 109 460 144 19 10 38 19 42 19 30 7 195 85 298
142 68 37 284 175 313 199 7 6 41 33 77 61 349 271 628 616 829 1023 35 71 64
134 65 140 2 6 10 29 20 51 44 101 123 365 142 475 3 14 7 32 9 40 3 8 7 33
10 55 4 22 8 51 10 65 3 14 7 50 11 80 3 30 8 66 11 80 7 34 12 453 5 464 -3
5 -6 29 -8 52 -3 51 -11 114 -26 204 -5 36 -12 76 -14 90 -2 14 -10 52 -19 85
-9 33 -18 69 -20 80 -6 29 -13 60 -15 60 -1 0 -3 8 -5 17 -5 29 -67 212 -75
223 -4 6 -15 34 -25 63 -29 89 -170 357 -258 491 -312 472 -756 849 -1277
1084 -68 31 -311 122 -335 127 -3 0 -10 2 -17 5 -10 3 -75 21 -108 30 -3 1
-32 7 -65 15 -33 7 -64 15 -70 16 -5 1 -35 7 -65 14 -54 10 -68 13 -165 25
-27 4 -60 8 -72 10 -46 7 -193 17 -328 20 -156 5 -180 7 -280 29 -334 71 -655
313 -796 601 -19 39 -37 72 -40 75 -12 11 -68 199 -80 270 -17 105 -15 288 5
391 28 145 65 247 138 373 44 74 44 75 131 178 177 209 455 356 747 397 68 9
307 7 350 -4 14 -3 46 -10 72 -15 133 -26 323 -112 442 -199 117 -85 227 -200
302 -316 40 -61 121 -228 127 -262 2 -10 7 -25 10 -33 22 -57 40 -183 43 -300
2 -129 -7 -213 -37 -325 -6 -22 -11 -42 -12 -45 -1 -17 -63 -154 -92 -205 -70
-125 -190 -266 -303 -354 -30 -22 -52 -41 -50 -41 1 -1 64 -17 138 -36 74 -20
143 -37 154 -39 10 -2 24 -9 32 -16 8 -6 14 -9 14 -5 0 9 287 -99 325 -122 6
-4 12 -7 15 -7 3 -1 26 -11 52 -23 26 -12 51 -22 57 -22 12 0 92 101 159 201
130 195 244 484 278 704 10 72 13 94 19 152 11 115 6 332 -11 417 -2 11 -6 38
-9 61 -4 22 -11 58 -17 80 -5 22 -12 50 -14 62 -11 59 -80 245 -128 346 -53
109 -171 297 -231 367 -182 211 -378 373 -575 476 -30 16 -57 31 -60 34 -12
12 -271 117 -310 125 -8 2 -49 12 -90 23 -72 19 -135 31 -263 51 -55 8 -401
13 -409 6z"/>
</g>
</svg>
